<?xml version="1.0" encoding="utf-8"?>
<!-- Generator: Adobe Illustrator 19.1.0, SVG Export Plug-In . SVG Version: 6.00 Build 0)  -->
<!DOCTYPE svg PUBLIC "-//W3C//DTD SVG 1.1//EN" "http://www.w3.org/Graphics/SVG/1.1/DTD/svg11.dtd">
<svg version="1.1" id="Layer_1" xmlns="http://www.w3.org/2000/svg" xmlns:xlink="http://www.w3.org/1999/xlink" x="0px" y="0px"
	 width="25px" height="25px" viewBox="0 0 25 25" style="enable-background:new 0 0 25 25;" xml:space="preserve">
<style type="text/css">
	.st0{fill:#FFFFFF;}
</style>
<g>
	<path class="st0" d="M18.9,13.1l-9.5,9.5c-0.2,0.2-0.4,0.2-0.6,0.2s-0.4-0.1-0.6-0.2l-2.1-2.1c-0.2-0.2-0.2-0.4-0.2-0.6
		s0.1-0.4,0.2-0.6l6.8-6.8L6.1,5.7C5.9,5.5,5.9,5.3,5.9,5.1c0-0.2,0.1-0.4,0.2-0.6l2.1-2.1c0.2-0.2,0.4-0.2,0.6-0.2s0.4,0.1,0.6,0.2
		l9.5,9.5c0.2,0.2,0.2,0.4,0.2,0.6S19.1,12.9,18.9,13.1z"/>
</g>
</svg>
