<?xml version="1.0" encoding="utf-8"?>
<!-- Generator: Adobe Illustrator 18.0.0, SVG Export Plug-In . SVG Version: 6.00 Build 0)  -->
<!DOCTYPE svg PUBLIC "-//W3C//DTD SVG 1.1//EN" "http://www.w3.org/Graphics/SVG/1.1/DTD/svg11.dtd">
<svg version="1.1" id="Layer_1" xmlns="http://www.w3.org/2000/svg" xmlns:xlink="http://www.w3.org/1999/xlink" x="0px" y="0px"
	 width="25px" height="25px" viewBox="0 0 25 25" enable-background="new 0 0 25 25" xml:space="preserve">
<g id="_x30_R9Fm7.tif">
	<g>
		<path fill="#FFFFFF" d="M1.8,13.6V9.2c0-0.1,0-0.2,0.1-0.3C2,8.8,2.1,8.7,2.3,8.7h6.1c-0.9,0-1.6-0.3-2.2-0.9
			C5.6,7.2,5.3,6.5,5.3,5.6S5.6,4,6.2,3.4c0.6-0.6,1.3-0.9,2.2-0.9c1,0,1.8,0.4,2.3,1.1l1.8,2.3l1.8-2.3c0.6-0.7,1.3-1.1,2.3-1.1
			c0.9,0,1.6,0.3,2.2,0.9c0.6,0.6,0.9,1.3,0.9,2.2s-0.3,1.6-0.9,2.2c-0.6,0.6-1.3,0.9-2.2,0.9h6.1c0.1,0,0.2,0,0.3,0.1
			c0.1,0.1,0.1,0.2,0.1,0.3v4.4c0,0.1,0,0.2-0.1,0.3C22.9,14,22.8,14,22.7,14h-1.3v5.8c0,0.4-0.1,0.7-0.4,0.9
			c-0.3,0.3-0.6,0.4-0.9,0.4H4.9c-0.4,0-0.7-0.1-0.9-0.4c-0.3-0.3-0.4-0.6-0.4-0.9V14H2.3C2.1,14,2,14,2,13.9
			C1.9,13.8,1.8,13.7,1.8,13.6z M7.4,4.7C7.2,4.9,7,5.2,7,5.6s0.1,0.7,0.4,0.9S8,6.9,8.4,6.9h2.7L9.3,4.7c-0.2-0.3-0.6-0.4-1-0.4
			C8,4.3,7.7,4.4,7.4,4.7z M10.3,18.6c0,0.2,0.1,0.4,0.2,0.5c0.2,0.1,0.4,0.2,0.6,0.2h2.7c0.3,0,0.5-0.1,0.6-0.2
			c0.2-0.1,0.2-0.3,0.2-0.5v-0.8v-6.5V8.7h-4.4v2.7v6.5V18.6z M13.9,6.9h2.7c0.4,0,0.7-0.1,0.9-0.4c0.3-0.3,0.4-0.6,0.4-0.9
			s-0.1-0.7-0.4-0.9c-0.3-0.3-0.6-0.4-0.9-0.4c-0.4,0-0.7,0.1-1,0.4L13.9,6.9z"/>
	</g>
</g>
</svg>
