<?xml version="1.0" encoding="utf-8"?>
<!-- Generator: Adobe Illustrator 17.1.0, SVG Export Plug-In . SVG Version: 6.00 Build 0)  -->
<!DOCTYPE svg PUBLIC "-//W3C//DTD SVG 1.1//EN" "http://www.w3.org/Graphics/SVG/1.1/DTD/svg11.dtd">
<svg version="1.1" id="Layer_1" xmlns="http://www.w3.org/2000/svg" xmlns:xlink="http://www.w3.org/1999/xlink" x="0px" y="0px"
	 viewBox="0 0 699.5 106.5" enable-background="new 0 0 699.5 106.5" xml:space="preserve">
<image overflow="visible" width="700" height="106" xlink:href="nya-logo.png"  transform="matrix(1 0 0 1 -0.5189 0)">
</image>
<g>
	<path fill="#1D1D1D" d="M350,106.5c-115.3,0-230.7,0-346,0.1c-3.4,0-4.1-0.7-4.1-4.1C0,69.7,0,36.8-0.1,4c0-3,0.6-3.6,3.6-3.6
		C74.3,0.5,145.1,0.5,216,0.5c159.8,0,319.7,0,479.5-0.1c3.7,0,4.6,0.8,4.6,4.6c-0.2,32.5-0.2,65,0,97.5c0,3.4-0.7,4.1-4.1,4.1
		C580.6,106.5,465.3,106.5,350,106.5z M608,52.5c0,0.1,0.1,0.3,0.1,0.3c0,0,0.2,0,0.3,0C608.3,52.7,608.1,52.6,608,52.5
		c0.1-2-0.5-3.3-2.7-2c-3,1.8-6.2,1.1-9.4,1.1c-0.6-1.6,0.6-2.5,1.6-2.5c3.2,0,4.3-2.8,6.4-4.3c2.6-1.8,0.9-3-0.7-3.2
		c-2.7-0.2-5.9-1.8-8,1.6c-0.4,0.6-1.9,1.8-2.3,0.4c-0.8-2.8-2.2-0.8-2.7-0.3c-3,2.6-6.6,4.5-8.7,8c-1.9,3.2-3.7,6.5-2,10.3
		c1.6,3.6,4,6.9,3.1,11.3c-0.2,0.9,1.3,2.2,2.2,3.2c5.8,6.2,14.5,8,22.4,4.6c8-3.5,13.2-11.8,12.7-20.3c-0.2-3-0.2-3-3.3-2.6
		c-0.2,0-0.5-0.2-0.7-0.4c-1.7-2.3-4-0.8-6-1c0.2-0.6,0.1-0.9-0.6-0.5c0.2,0.1,0.5,0.3,0.7,0.4c0.5,1.1,3.4,1.4,1.1,3.5
		c-1.7,1.6-2.5,0.3-3.5-0.8c-0.8-1-1.3-2.3-2.7-2.6C604.7,54.2,603.3,51,608,52.5z M249.5,35.3l0.1-0.2L249.5,35.3
		c0-2.5-0.4-5,1.8-7c1-0.9,1-2.1,0.2-3.2c-0.6-0.8-1.4-1.4-2.5-1.3c-2.6,0.1-7.4,4.6-7.6,7.3c-0.5,6.8-0.9,13.6-1.5,20.3
		c-0.6,7.4-1.2,14.9-1.7,22.3c-0.1,2-0.9,4.7,2.8,4.4c4.9-0.4,7.2-3.7,6-8.5c-0.2-0.9,0-2,0-3c0.4-6.3,1.3-12.6,1.2-18.8
		c-0.1-4.8,2.2-7.7,5.8-10.1c0.8-0.5,1.5-1.8,2.5-0.9c0.4,0.3,0.3,1.5,0.3,2.3c-0.3,7.8-0.3,15.6-1,23.4c-0.6,6.3,0.5,12.9-3.3,18.8
		c-1.3,2.1,0.5,3.3,2.8,3.2c3.8-0.2,7-2.8,7.4-6.7c1.7-14.5,2.4-29.1,2.4-43.7c0-4.2-2.3-5.6-6.3-4.4
		C255.3,30.9,252.5,33.3,249.5,35.3z M120.1,37.6c-0.3-0.2-0.5-0.4-0.8-0.6c1-1.3,2.3-2.5,0.9-4.4c-1.3-1.7-3-1.3-4.6-0.9
		c-4.2,1-7.7,3.7-11.4,5.7c-0.8-0.8-0.4-1.7-0.6-2.5c-0.3-1.5,0.9-2.4,1.3-3.6c0.7-2,0.5-3.7-2.1-3.9c-3.4-0.3-7,2.5-7.3,5.9
		c-1.1,14.1-2.2,28.1-3.3,42.2c-0.1,1.6,0.1,3.2,2.2,3.2c2.9-0.1,5.5-1.2,7.5-3.5c1.6-1.9,1.1-3.5-0.5-5.2c-0.6-0.6-0.4-2.2-0.3-3.4
		c0.3-5.1,1-10.3,1-15.4c0-5.4,2.2-8.9,7-11.3c3.7-1.9,5.9-1.9,9,1.4c0.6,0.6,1.4,1,2.2,0.7c4.8-2,3.2,1.3,3,3.5
		c-1,8.3-1.5,16.6-0.5,24.9c0.6,5.5,3.3,7.5,8.8,7.1c3.2-0.2,6.2-1.1,9.1-2.5c1.8-0.9,3.5-2,3.5-4.4c0-1.2-0.7-1.9-1.7-2.2
		c-2.3-0.6-3.7,1-5.2,2.2c-0.1,0.1-0.2,0.3-0.3,0.4c-2.7,2.9-3.8,2.8-5.1-0.9c-0.5-1.6-0.8-3.2-0.9-4.9c-0.8-7.3,0-14.6,0.8-21.9
		c0.6-5.3,1.2-5.7,5.8-3.1c2.1,1.2,3.5,0.1,4.9-1c1.3-1.1,2.7-2.5,2.2-4.2c-0.5-2.1-2.7-1.3-4.2-1.6c-2.5-0.4-5.8,2.1-7.1-0.4
		c-1-1.9,0.5-5.1,0.8-7.8c0.2-1.9,2.1-2.5,2.8-4c0.5-1.1,0.9-2.2,0.1-3.3c-0.5-0.7-1.2-0.9-2.1-0.9c-4.8,0.4-7.9,3-8.7,7.9
		c-0.4,2.5-1.1,4.9-1.1,7.4C125.1,35.8,123.4,37.3,120.1,37.6z M39.8,77.4c-4.4-5.6-6.7-10.9-8.7-16.3c-4.1-10.7-7.2-21.8-9.1-33.1
		c-0.3-2-0.6-4.1-3.6-3.7c-2.6,0.4-3.4,1.8-3.4,4.4c0.1,17.5,0,35,0.1,52.4c0,1.1-0.8,2.8,1,3.3c3.1,0.9,7.9-3.8,6.7-6.6
		c-1.9-4.4-0.4-8.8-0.6-13.2c1,0.9,1.4,2,1.8,3c2.8,6.1,5.7,12.1,10.8,16.5c5.5,4.8,10.9,3.1,12.8-3.8c0.4-1.6,0.4-3.3,0.6-4.9
		c0.8-5.6,0.3-11.3,0-16.9c-0.8-13.8-1.6-27.5-2.3-41.3c-0.2-3.3-1.8-4.4-4.9-3.8c-3.1,0.6-6.3,3.5-5.2,5.6c2.8,5.1,2,10.6,2.4,16
		C39.4,48.7,40.4,62.4,39.8,77.4z M445.7,76.7c0.2,3.6,0.3,7.3,0.6,10.9c0.1,1.2,0.2,2.8,1.9,3.1c3.1,0.6,5.5-0.9,7.5-3
		c1.9-1.9,1.9-3.7-0.5-5.4c-1.1-0.8-0.7-2.1-0.6-3.3c0.3-5.8,0.5-11.6,0.9-17.4c0.4-7.4,1.3-14.8,0.9-22.3c-0.2-3.4-2-4.3-4.9-4.1
		c-3.9,0.2-7.5,1.4-11,2.9c-1.7,0.7-2.7,0.4-2.3-1.5c1.5-6.8-0.6-14.3,4-20.6c0.9-1.2,1.1-2.3-1.1-2.7c-5.5-0.8-9,1.6-9.6,7.1
		c-1.2,11.9-2.3,23.8-3.2,35.7c-0.7,8.8-1.4,17.6-1,26.4c0.1,1.6-0.2,4.4,2.3,4.3c2.7,0,5.6-0.8,7.5-3.3c1.3-1.7,1.5-3.3-0.6-4.7
		c-1.2-0.8-1.3-2.2-1.3-3.6c0.6-8.9,1.3-17.9,1.8-26.8c0.2-2.9,1.1-4.7,4.2-5.7c7.4-2.5,7.4-2.7,7,5.1
		C447.6,57.5,445.8,67,445.7,76.7z M148,72c0,3.5,0,7,0,10.5c0,1.9-0.2,4.3,2.1,4.4c2.8,0.2,5.6-0.7,7.5-3.2
		c1.2-1.6,1.8-3.3-0.4-4.7c-1.7-1-1.1-2.7-1-4.1c0.5-9.4,1.2-18.9,1.7-28.3c0.1-1.8,1-2.7,2.5-3.2c1.6-0.5,3.2-1.1,4.7-1.7
		c2.5-1,3.9-1,3.7,2.5c-0.2,6-0.9,11.9-1.4,17.8c-0.7,8.4-2.1,16.8-0.6,25.3c0.6,3,1.9,4.1,4.8,3.2c1.9-0.6,3.8-1.5,5-3.1
		c0.8-1,2-2.5,0.8-3.5c-3.6-2.8-2.2-6.5-2.1-9.9c0.3-11.1,2.1-22.1,1.8-33.3c-0.1-4.8-1.3-5.9-6.1-5.4c-3.5,0.3-6.8,1.5-10.1,2.8
		c-1.1,0.5-2.4,0.9-2.1-1.2c1.1-6.9-0.8-14.3,3.7-20.6c0.6-0.8,1.2-2.1-0.4-2.9c-3.6-1.6-9.6,1.5-10,5.4
		C150.2,36.5,148.7,54.2,148,72z M484.1,83.8c0.3,2.2-1.6,5.1,2.1,5.4c4.8,0.4,8.4-4.3,7.1-8.9c-0.4-1.4-0.1-2.6,0.1-3.9
		c0.8-5.6,1.6-11.2,2.5-16.8c1.3-8,1.3-8,9.3-9.1c2.3-0.3,3.5-0.2,4.1,2.6c2.4,9.9,4.2,19.9,6.4,29.8c0.2,1.1,0.1,2.2-0.2,3.4
		c-0.8,3.5,0.7,4.9,4.3,4.1c4.2-0.9,5.6-3,4.9-7.1c-1.6-8.3-3-16.7-4.9-25c-2.3-9.5-4.4-19.2-9.1-27.9c-2.7-4.9-6.8-5.5-11.2-2.2
		c-3.2,2.4-4.9,5.8-6.1,9.5C488.5,52.9,485.8,68.4,484.1,83.8z M681.8,13.7c-1.1-0.1-2-0.2-3-0.2c-6.3-0.1-6.5-0.1-7.1,6.4
		c-0.6,6.4-1,12.9-1.2,19.4c-0.1,1.8-0.3,2.9-2.3,3.7c-15.9,6.5-18.2,18.5-14.7,34.1c1.1,4.9,4.1,8.9,9.5,9.8
		c3.4,0.6,5.9,1.1,5.1,5.4c-0.3,1.6,0.8,3,2.4,3.3c2.8,0.4,5.3-0.7,7.1-2.8c1.2-1.3,1.7-3.2,0.1-4.4c-1.9-1.4-1.7-3.1-1.6-4.8
		c1-17.2,1.9-34.5,3.2-51.7C679.7,25.9,678.9,19.6,681.8,13.7z M526.7,81.1c0,2.9,0,6.4,0,9.9c0,1.9,0.1,3.8,2.3,4.5
		c2.5,0.8,4.5-0.6,6.3-2.1c1.5-1.4,2-3.1,0.6-4.9c-1.7-2.2-0.6-3.3,1.4-4.1c11.1-4.6,14.1-14.2,14.9-25c0.7-9.8-2.9-14.8-12.4-17.5
		c-0.9-0.3-2.2-0.1-2-1.5c0.8-7,0.3-14.2,2.4-21.1c0.4-1.4,1-2.5-0.1-3.6c-1.3-1.2-2.9-1-4.2-0.2c-2.5,1.7-4.6,3.4-5,6.9
		C528.9,41.8,528.1,61.2,526.7,81.1z M647.8,59.1c0-6.8,0.1-13.6-0.1-20.4c-0.1-3-1.1-5.7-5-5.4c-5.4,0.4-10.5,1.9-15.1,4.7
		c-1.7,1.1-3.5,2.7-1.5,4.9c1.7,1.8,3.4,0.5,4.8-0.7c1.1-1,1.9-2.4,3.2-3.1c1.5-0.9,3.5-1.9,4.8,0.3c1.1,2,1.3,3.7-1.3,5.3
		c-12,7.4-16.3,20.6-11.3,33.7c1.9,5,10,11,15,10.9c2.4,0,4.5-1.2,6.2-2.8c1.9-1.8,0-3.7,0.1-5.4C648,73.7,647.9,66.4,647.8,59.1z
		 M369.1,55.5c0.1,7-0.5,12.4,1.1,17.6c1.7,5.4,5.2,7,10.4,4.8c3.2-1.4,6.2-3.2,8.9-5.4c2.9-2.4,4.6-5.2,4.9-9.3
		c0.6-8.3,0.1-16.6,0.3-24.9c0-1.9-1-3.9,0.1-5.8c0.7-1.2,0.9-2.5-0.2-3.7c-1.2-1.3-2.7-1.1-4.2-0.6c-3.3,1.1-5.2,2.8-4.7,6.9
		c1.2,9.6,1,19.2,0.4,28.8c-0.2,2.3,0,4.7-2.3,6.3c-1.3,0.9-2.4,2.9-4.2,2.2c-1.4-0.6-1.4-2.5-1.6-3.9c-1-7.3-0.8-14.6-0.3-21.9
		c0.2-4.2-0.4-8.6,2.4-12.5c1.6-2.2-0.1-4.1-3-3.7c-4.4,0.6-6.7,2.9-7.2,7.5C369.4,44.2,368.8,50.7,369.1,55.5z M315.9,69.2
		c-0.4-11.8-0.7-23.6-1.2-35.4c-0.1-2.8,0.4-4.8,2.7-6.8c3.6-3.1,7.2-6.4,9.9-10.5c0.6-0.9,1.8-1.8,0.5-2.9
		c-1.4-1.2-7.6,0.1-7.9,1.9c-0.8,4.4-4.4,6.4-7,9.3c-2,2.2-3.3,1.8-5.2-0.2c-2.8-2.9-5.9-5.4-8.8-8c-1.8-1.7-3.8-2-5.9-0.7
		c-1.8,1-3.5,2.4-3.5,4.5c-0.1,3,2.5,2.2,4.3,2.6c1,0.3,1.8,1.4,2.7,2.2c2.1,1.9,4.1,4,6.4,5.6c3.1,2.1,3.9,5,4,8.5
		c0.4,12.6,0.7,25.3,0.6,37.9c0,2.6,0.3,5.2-1.7,7.5c-1.5,1.7-0.6,3.5,1.8,4c3.5,0.8,7.5-2,8-5.6C315.9,78.6,315.7,73.9,315.9,69.2z
		 M180.6,67.7c-0.1,3-0.1,6,0.6,8.9c1.7,7.5,7.1,10.8,14.5,8.6c2.7-0.8,5.3-2,7.9-3.1c2.4-1,3.6-2.9,3.4-5.5c-0.1-1.1-0.8-2-1.9-2
		c-2.6-0.1-4.4,1.3-5.7,3.4c-2.7,4.3-5.9,4.2-8.3-0.2c-1.7-3.1-2.1-6.6-2.3-10.1c-0.5-7-0.4-6.9,6.3-8.7c2.2-0.6,4.4-1.5,6.4-2.6
		c3.8-2.1,5.7-5.3,5.4-9.8c-0.3-5.9-3.7-11.6-7.9-12.7c-4.3-1.2-9,1.7-12.1,7.6C182.6,49.6,180.6,58.4,180.6,67.7z M52.5,67
		c0,10.2,4.8,14.6,14.9,13.7C76.2,80,86.2,71.1,89,61.5c1.8-6.3,1.4-12.5-1.8-18.3c-2.8-5-8.1-7.3-13.1-5.5
		C61.5,42.5,52.8,52,52.5,67z M326,66.8c-0.2,10.9,6.4,16.1,17.3,13.6c9.1-2.1,18.3-11.8,19.8-21.1c1-5.7,0.5-11.3-2.5-16.3
		c-2.8-4.8-8.3-6.9-13.3-5.2C334.9,41.9,326.2,53.7,326,66.8z M410.1,58.8c-0.3-5.2,0.5-10.3,1-15.4c0.5-5.7,0.9-5.9,6.1-3.3
		c2.1,1.1,3.5-0.1,4.9-1.3c1.3-1.1,2.5-2.5,1.8-4.3c-0.8-2.1-2.9-1.2-4.4-1.2c-1.5-0.1-3,0.1-4.5,0.4c-1.9,0.4-2.9,0-2.4-2.2
		c0.8-3.5,0.2-7.2,3.3-10.1c1.8-1.8,0.9-4.4-1.1-4.6c-3.5-0.3-8.3,3.4-8.9,7c-0.3,1.8-0.7,3.6-0.9,5.4c-0.5,3.8-0.2,8.1-5.6,8.9
		c-1,0.1-2.1,1.4-1.7,2.7c0.4,1.5,1.7,1.3,2.9,0.9c3.3-1.1,2.7,1,2.5,2.8c-0.8,6.8-1.2,13.5-1.2,20.4c0,11.7,3.7,15.2,16.5,10.8
		c0.8-0.3,1.6-0.6,2.3-1c1.7-0.9,3-2.2,3.2-4.2c0.1-1-0.6-1.9-1.6-2.3c-2.3-0.8-3.7,0.8-5.2,2c-0.3,0.2-0.4,0.5-0.6,0.7
		c-2.2,2.7-3.7,2.5-4.9-0.9C410,66.4,410,62.6,410.1,58.8z M222.5,37.8c-0.8-2.7,0.2-4.5,1.3-6.5c1.1-2,0.3-3.6-2.1-3.9
		c-2.8-0.4-7.1,2.5-7.3,5.4c-1.2,14.4-2.2,28.8-3.3,43.2c-0.1,1.7,0.6,2.7,2.1,2.7c2.9-0.1,5.5-1.2,7.5-3.4c1.6-1.8,1.2-3.6-0.5-5.3
		c-0.5-0.5-0.3-1.6-0.3-2.4c0.5-6.8,1-13.6,1.6-20.3c0.4-4.3,7.3-9.1,11.6-8.1c2.6,0.6,4-1.1,5.4-2.7c0.9-1,1.2-2.5,0.3-3.7
		c-1.5-2-3.5-1.2-5.5-0.6C229.5,33.1,226.3,35.5,222.5,37.8z M568.2,37.7c-0.5-2.7,0.2-4.4,1.3-6.2c1.3-2.1,0.4-3.6-1.9-4.1
		c-2.9-0.7-7.3,2.5-7.5,5.6c-1.1,13.6-2.1,27.1-3,40.7c-0.3,5.2,1.2,6.1,6.1,3.7c2.5-1.3,5.6-2.9,3.6-6.3c-1.1-1.8-1.1-3.2-0.9-5
		c0.4-5.1,0.7-10.3,1.1-15.4c0.4-6,3.8-10.5,9.2-12.5c1-0.4,1.5,0,2.2,0.4c2.7,1.5,4.3-0.5,5.9-2.1c1.2-1.2,1.5-2.9,0.4-4.1
		c-1.8-1.8-3.9-0.9-6.1-0.2C574.8,33.4,571.9,35.8,568.2,37.7z"/>
	<path fill="#F5F5F5" d="M39.8,77.4c0.7-14.9-0.4-28.6-1.5-42.3c-0.4-5.3,0.4-10.8-2.4-16c-1.1-2,2.1-5,5.2-5.6
		c3.1-0.5,4.7,0.5,4.9,3.8c0.7,13.8,1.5,27.5,2.3,41.3c0.3,5.6,0.8,11.3,0,16.9c-0.2,1.6-0.2,3.4-0.6,4.9c-1.9,7-7.4,8.6-12.8,3.8
		c-5.1-4.5-8.1-10.5-10.8-16.5c-0.5-1-0.9-2-1.8-3c0.2,4.4-1.3,8.8,0.6,13.2c1.2,2.8-3.7,7.5-6.7,6.6c-1.9-0.5-1-2.2-1-3.3
		c-0.1-17.5,0-35-0.1-52.4c0-2.6,0.8-4,3.4-4.4c3-0.4,3.2,1.7,3.6,3.7c1.9,11.3,5.1,22.4,9.1,33.1C33.1,66.5,35.4,71.8,39.8,77.4z"
		/>
	<path fill="#F5F5F5" d="M120.1,37.6c3.3-0.3,5-1.9,5-5.4c0-2.5,0.7-4.9,1.1-7.4c0.8-4.8,3.9-7.5,8.7-7.9c1-0.1,1.6,0.1,2.1,0.9
		c0.8,1.1,0.5,2.2-0.1,3.3c-0.7,1.5-2.6,2.1-2.8,4c-0.3,2.6-1.8,5.8-0.8,7.8c1.3,2.5,4.6,0,7.1,0.4c1.6,0.3,3.7-0.5,4.2,1.6
		c0.4,1.7-0.9,3.1-2.2,4.2c-1.4,1.2-2.8,2.2-4.9,1c-4.6-2.6-5.3-2.2-5.8,3.1c-0.8,7.3-1.6,14.5-0.8,21.9c0.2,1.6,0.4,3.3,0.9,4.9
		c1.3,3.7,2.4,3.8,5.1,0.9c0.1-0.1,0.2-0.3,0.3-0.4c1.5-1.3,2.9-2.9,5.2-2.2c1,0.3,1.7,1,1.7,2.2c0,2.4-1.6,3.5-3.5,4.4
		c-2.9,1.4-5.9,2.3-9.1,2.5c-5.5,0.4-8.1-1.6-8.8-7.1c-0.9-8.3-0.4-16.6,0.5-24.9c0.3-2.2,1.8-5.5-3-3.5c-0.9,0.4-1.7,0-2.2-0.7
		c-3.1-3.3-5.3-3.3-9-1.4c-4.7,2.5-7,5.9-7,11.3c0,5.1-0.7,10.3-1,15.4c-0.1,1.1-0.3,2.7,0.3,3.4c1.7,1.7,2.1,3.3,0.5,5.2
		c-2,2.2-4.6,3.4-7.5,3.5c-2.1,0.1-2.3-1.5-2.2-3.2c1.1-14.1,2.1-28.1,3.3-42.2c0.3-3.4,3.9-6.2,7.3-5.9c2.6,0.2,2.9,1.9,2.1,3.9
		c-0.4,1.2-1.6,2.1-1.3,3.6c0.1,0.8-0.2,1.7,0.6,2.5c3.7-2,7.2-4.7,11.4-5.7c1.6-0.4,3.3-0.8,4.6,0.9c1.4,1.9,0.1,3.1-0.9,4.4
		c-0.3,0.4-1,0.9-0.1,1.3C119.3,38.4,119.8,37.9,120.1,37.6z"/>
	<path fill="#F5F5F5" d="M445.7,76.7c0.1-9.7,2-19.2,2.5-28.8c0.4-7.7,0.4-7.6-7-5.1c-3.1,1-4,2.8-4.2,5.7
		c-0.5,8.9-1.1,17.9-1.8,26.8c-0.1,1.4,0,2.7,1.3,3.6c2,1.4,1.8,2.9,0.6,4.7c-1.9,2.6-4.8,3.3-7.5,3.3c-2.4,0-2.2-2.7-2.3-4.3
		c-0.5-8.8,0.3-17.6,1-26.4c0.9-11.9,2-23.8,3.2-35.7c0.5-5.5,4.1-7.9,9.6-7.1c2.2,0.3,2,1.5,1.1,2.7c-4.7,6.2-2.5,13.7-4,20.6
		c-0.4,2,0.6,2.2,2.3,1.5c3.5-1.5,7.2-2.6,11-2.9c2.9-0.2,4.7,0.7,4.9,4.1c0.4,7.5-0.5,14.9-0.9,22.3c-0.3,5.8-0.6,11.6-0.9,17.4
		c0,1.1-0.4,2.5,0.6,3.3c2.3,1.7,2.3,3.4,0.5,5.4c-2,2.1-4.4,3.6-7.5,3c-1.7-0.3-1.8-2-1.9-3.1C445.9,84,445.8,80.3,445.7,76.7z"/>
	<path fill="#F5F5F5" d="M148,72c0.6-17.7,2.2-35.4,4.2-53.1c0.4-3.8,6.4-7,10-5.4c1.6,0.7,1,2.1,0.4,2.9
		c-4.5,6.3-2.6,13.7-3.7,20.6c-0.3,2.1,1,1.7,2.1,1.2c3.2-1.3,6.6-2.4,10.1-2.8c4.8-0.5,6,0.7,6.1,5.4c0.3,11.1-1.5,22.2-1.8,33.3
		c-0.1,3.5-1.5,7.1,2.1,9.9c1.3,1,0,2.6-0.8,3.5c-1.3,1.6-3.1,2.5-5,3.1c-2.9,0.8-4.2-0.2-4.8-3.2c-1.5-8.5-0.2-16.9,0.6-25.3
		c0.5-5.9,1.2-11.9,1.4-17.8c0.1-3.5-1.2-3.5-3.7-2.5c-1.5,0.6-3.1,1.2-4.7,1.7c-1.6,0.5-2.4,1.4-2.5,3.2
		c-0.5,9.4-1.2,18.9-1.7,28.3c-0.1,1.4-0.6,3,1,4.1c2.1,1.3,1.6,3,0.4,4.7c-1.8,2.5-4.7,3.4-7.5,3.2c-2.3-0.2-2.1-2.6-2.1-4.4
		C148,79,148,75.5,148,72z"/>
	<path fill="#F5F5F5" d="M484.1,83.8c1.7-15.4,4.4-31,9.2-46.1c1.2-3.7,2.8-7.1,6.1-9.5c4.4-3.3,8.5-2.6,11.2,2.2
		c4.8,8.7,6.9,18.3,9.1,27.9c2,8.3,3.4,16.6,4.9,25c0.8,4.1-0.7,6.1-4.9,7.1c-3.6,0.8-5.2-0.5-4.3-4.1c0.3-1.2,0.5-2.2,0.2-3.4
		c-2.2-9.9-4-19.9-6.4-29.8c-0.7-2.8-1.8-2.9-4.1-2.6c-7.9,1.1-8,1-9.3,9.1c-0.9,5.6-1.7,11.2-2.5,16.8c-0.2,1.3-0.5,2.6-0.1,3.9
		c1.3,4.6-2.4,9.3-7.1,8.9C482.5,88.9,484.3,86,484.1,83.8z M502.5,34.1c-2.1,2.9-2.3,6.3-3.3,9.4c-0.9,2.6-0.6,4.1,2.7,3.1
		c0.8-0.2,1.6-0.3,2.5-0.3c2.4-0.2,3.1-1.2,2.1-3.6C505.2,39.8,504.7,36.6,502.5,34.1z"/>
	<path fill="#F5F5F5" d="M681.8,13.7c-2.9,5.9-2.1,12.2-2.6,18.2c-1.3,17.2-2.2,34.4-3.2,51.7c-0.1,1.8-0.3,3.5,1.6,4.8
		c1.6,1.2,1.1,3.2-0.1,4.4c-1.9,2-4.3,3.2-7.1,2.8c-1.6-0.3-2.7-1.7-2.4-3.3c0.8-4.3-1.7-4.8-5.1-5.4c-5.3-0.9-8.4-4.9-9.5-9.8
		c-3.4-15.6-1.2-27.6,14.7-34.1c2-0.8,2.2-1.9,2.3-3.7c0.3-6.5,0.6-12.9,1.2-19.4c0.6-6.5,0.8-6.5,7.1-6.4
		C679.8,13.5,680.7,13.6,681.8,13.7z M669.7,47.6c-5.2,1.8-7.7,5.5-8.6,10.3c-1,5.2-0.8,10.5,0.1,15.7c0.5,2.8,1.8,5.3,4.5,6.9
		c1.5,0.9,2.3,1.2,2.4-1.1C668.5,68.9,669.1,58.4,669.7,47.6z"/>
	<path fill="#F5F5F5" d="M526.7,81.1c1.5-19.9,2.2-39.3,4.1-58.6c0.3-3.5,2.5-5.3,5-6.9c1.2-0.8,2.9-1,4.2,0.2
		c1.2,1.1,0.6,2.2,0.1,3.6c-2.1,6.9-1.6,14.1-2.4,21.1c-0.2,1.4,1.1,1.2,2,1.5c9.5,2.7,13.1,7.7,12.4,17.5
		c-0.7,10.8-3.7,20.3-14.9,25c-2,0.8-3.1,1.9-1.4,4.1c1.4,1.8,0.9,3.5-0.6,4.9c-1.8,1.6-3.8,2.9-6.3,2.1c-2.2-0.7-2.2-2.6-2.3-4.5
		C526.6,87.5,526.7,84,526.7,81.1z M535.1,73.5c0.1,0,0.1,0,0.2,0c0,0.8-0.2,1.7,0,2.5c0.3,1.2-1.2,3,0.4,3.5
		c1.6,0.5,2.5-1.3,3.3-2.5c4.7-7.3,5.1-15.3,3.5-23.5c-0.3-1.6-1.4-3-2.7-4.1c-1.9-1.6-2.8-1.3-3,1.3
		C536.3,58.3,535.7,65.9,535.1,73.5z"/>
	<path fill="#F5F5F5" d="M249.5,35.3c3.1-2,5.9-4.4,9.4-5.5c4-1.2,6.3,0.2,6.3,4.4c0,14.6-0.7,29.2-2.4,43.7
		c-0.5,3.9-3.7,6.5-7.4,6.7c-2.3,0.1-4.1-1.2-2.8-3.2c3.8-5.9,2.7-12.5,3.3-18.8c0.7-7.8,0.7-15.6,1-23.4c0-0.8,0.2-2-0.3-2.3
		c-1-0.8-1.7,0.4-2.5,0.9c-3.6,2.4-5.9,5.3-5.8,10.1c0.1,6.3-0.8,12.6-1.2,18.8c-0.1,1-0.3,2,0,3c1.2,4.8-1.1,8.1-6,8.5
		c-3.7,0.3-3-2.4-2.8-4.4c0.5-7.4,1.1-14.9,1.7-22.3c0.5-6.8,0.9-13.6,1.5-20.3c0.2-2.7,5-7.2,7.6-7.3c1.1-0.1,1.9,0.5,2.5,1.3
		c0.8,1.1,0.7,2.3-0.2,3.2C249.1,30.2,249.5,32.8,249.5,35.3l-0.1,0.1L249.5,35.3z"/>
	<path fill="#F5F5F5" d="M647.8,59.1c0.1,7.3,0.2,14.6-0.3,21.9c-0.1,1.7,1.7,3.7-0.1,5.4c-1.7,1.6-3.8,2.8-6.2,2.8
		c-5,0.1-13.1-5.9-15-10.9c-5-13.1-0.7-26.3,11.3-33.7c2.7-1.6,2.5-3.3,1.3-5.3c-1.3-2.2-3.3-1.2-4.8-0.3c-1.2,0.7-2.1,2.1-3.2,3.1
		c-1.4,1.2-3.1,2.6-4.8,0.7c-2-2.2-0.1-3.8,1.5-4.9c4.6-2.9,9.7-4.4,15.1-4.7c3.9-0.3,4.9,2.4,5,5.4
		C647.9,45.5,647.8,52.3,647.8,59.1z M640.1,63.9c0,0-0.1,0-0.1,0c0-3.8,0-7.6,0-11.4c0-0.9,0.6-2.2-0.5-2.7c-1.3-0.6-2,0.8-2.7,1.7
		c-0.9,1.2-2,2.4-2.4,3.7c-2.2,7.2-2,14.4,0.7,21.4c0.4,1.1,1.2,2,1.9,2.9c0.4,0.5,0.9,1.1,1.6,0.9c0.8-0.2,0.5-1,0.6-1.7
		C639.5,73.8,639.8,68.8,640.1,63.9z"/>
	<path fill="#F5F5F5" d="M369.1,55.5c-0.3-4.8,0.3-11.3,1.1-17.7c0.5-4.5,2.9-6.9,7.2-7.5c2.8-0.4,4.6,1.6,3,3.7
		c-2.9,3.9-2.2,8.2-2.4,12.5c-0.4,7.3-0.7,14.6,0.3,21.9c0.2,1.4,0.1,3.4,1.6,3.9c1.8,0.7,2.8-1.3,4.2-2.2c2.2-1.6,2.1-4,2.3-6.3
		c0.7-9.6,0.8-19.3-0.4-28.8c-0.5-4.1,1.4-5.8,4.7-6.9c1.5-0.5,3-0.7,4.2,0.6c1.1,1.1,0.9,2.5,0.2,3.7c-1.1,2-0.1,3.9-0.1,5.8
		c-0.2,8.3,0.3,16.6-0.3,24.9c-0.3,4.1-2,6.9-4.9,9.3c-2.7,2.2-5.7,4-8.9,5.4c-5.2,2.2-8.7,0.6-10.4-4.8
		C368.6,67.8,369.2,62.5,369.1,55.5z"/>
	<path fill="#F5F5F5" d="M315.9,69.2c-0.2,4.7,0.1,9.3-0.6,13.9c-0.5,3.5-4.5,6.3-8,5.6c-2.3-0.5-3.2-2.3-1.8-4
		c2-2.4,1.7-4.9,1.7-7.5c0.1-12.6-0.1-25.3-0.6-37.9c-0.1-3.5-0.9-6.3-4-8.5c-2.3-1.6-4.2-3.7-6.4-5.6c-0.9-0.8-1.7-1.9-2.7-2.2
		c-1.8-0.5-4.3,0.4-4.3-2.6c0-2.1,1.8-3.5,3.5-4.5c2.1-1.3,4.1-1,5.9,0.7c3,2.7,6.1,5.2,8.8,8c1.9,1.9,3.1,2.4,5.2,0.2
		c2.7-2.9,6.2-5,7-9.3c0.3-1.7,6.5-3.1,7.9-1.9c1.3,1.1,0.1,2.1-0.5,2.9c-2.7,4.1-6.3,7.3-9.9,10.5c-2.3,2-2.8,4-2.7,6.8
		C315.1,45.7,315.5,57.5,315.9,69.2z"/>
	<path fill="#038CC3" d="M604.9,56.5c1.4,0.3,1.9,1.6,2.7,2.6c1,1.1,1.7,2.4,3.5,0.8c2.3-2.1-0.6-2.4-1.1-3.5l-0.1,0.1
		c2,0.2,4.3-1.3,6,1c0.1,0.2,0.5,0.4,0.7,0.4c3.2-0.3,3.2-0.4,3.3,2.6c0.5,8.5-4.7,16.8-12.7,20.3c-7.9,3.4-16.6,1.6-22.4-4.6
		c-0.9-1-2.4-2.3-2.2-3.2c1-4.4-1.5-7.7-3.1-11.3c-1.7-3.8,0.1-7.2,2-10.3c2.1-3.5,5.7-5.5,8.7-8c0.5-0.4,1.9-2.4,2.7,0.3
		c0.4,1.3,1.9,0.2,2.3-0.4c2.1-3.4,5.3-1.9,8-1.6c1.7,0.1,3.3,1.4,0.7,3.2c-2.1,1.4-3.3,4.2-6.4,4.3c-1.1,0-2.2,0.9-1.6,2.5
		c0,0,0.1-0.1,0.1-0.1c-0.6,0.1-1.8,0.1-1.9,0.2c-0.3,3.1-3.4,4.3-4.7,6.6c-1.3,2.3,0,6.3,2.1,6.1c6.7-0.6,6.9,3.5,7,8.4
		c0,1.5,0.9,3.8,3,4.2c1.7,0.4,2.5-1.2,3.6-2.2c3.1-3,2.3-7.9,5.4-10.9c0.8-0.7-0.5-1.2-1.2-1.6C606.9,61,605.5,59.1,604.9,56.5
		L604.9,56.5z"/>
	<path fill="#F5F5F5" d="M180.6,67.7c0-9.3,2-18.1,6.3-26.4c3.1-5.9,7.8-8.8,12.1-7.6c4.3,1.2,7.6,6.8,7.9,12.7
		c0.2,4.5-1.7,7.7-5.4,9.8c-2,1.1-4.2,2-6.4,2.6c-6.7,1.9-6.8,1.8-6.3,8.7c0.2,3.5,0.6,7,2.3,10.1c2.4,4.4,5.6,4.4,8.3,0.2
		c1.3-2.1,3.1-3.5,5.7-3.4c1,0.1,1.8,0.9,1.9,2c0.2,2.6-0.9,4.5-3.4,5.5c-2.6,1.1-5.2,2.3-7.9,3.1c-7.4,2.2-12.8-1-14.5-8.6
		C180.5,73.7,180.5,70.7,180.6,67.7z M192.4,55.3c5.4-0.1,7.3-2.2,6.2-7.2c-0.4-2.1-1.3-4.1-2.1-6.1c-0.3-0.7-0.4-1.8-1.4-1.8
		c-1.1,0-1.1,1.1-1.4,1.8c-1.7,3.5-2.4,7.2-3.4,10.9C189.5,55.2,190.8,55.5,192.4,55.3z"/>
	<path fill="#F5F5F5" d="M52.5,67c0.3-14.9,9-24.5,21.6-29.2c5-1.9,10.3,0.4,13.1,5.5c3.2,5.8,3.6,12,1.8,18.3
		C86.2,71.1,76.2,80,67.4,80.7C57.3,81.6,52.5,77.1,52.5,67z M60.9,64.3c0,2,0.1,4,0.7,5.9c1.9,6.1,7.9,8,13,4
		c7.1-5.6,9.3-21.6,4-28.9c-2.6-3.6-5.2-4.1-8.7-1.2C63.5,49.3,61.1,56.3,60.9,64.3z"/>
	<path fill="#F5F5F5" d="M326,66.8c0.2-13.1,8.9-24.9,21.4-29.1c5-1.7,10.5,0.4,13.3,5.2c3,5.1,3.4,10.6,2.5,16.3
		c-1.6,9.3-10.7,19-19.8,21.1C332.4,82.9,325.8,77.6,326,66.8z M334.5,64.2c0.1,1.4,0.2,3.3,0.5,5c1.3,6.8,7.7,9.2,13.2,5
		c7.2-5.5,9.4-22.3,3.8-29.4c-2.5-3.2-4.9-3.6-8-1.1C337.4,48.8,334.7,55.7,334.5,64.2z"/>
	<path fill="#F5F5F5" d="M410.1,58.8c-0.2,3.8-0.2,7.7,1.2,11.3c1.2,3.3,2.6,3.5,4.9,0.9c0.2-0.3,0.4-0.6,0.6-0.7
		c1.5-1.2,3-2.8,5.2-2c1,0.3,1.7,1.2,1.6,2.3c-0.2,2-1.5,3.3-3.2,4.2c-0.7,0.4-1.5,0.7-2.3,1c-12.7,4.4-16.5,1-16.5-10.8
		c0-6.8,0.3-13.6,1.2-20.4c0.2-1.8,0.8-4-2.5-2.8c-1.1,0.4-2.5,0.6-2.9-0.9c-0.3-1.3,0.7-2.6,1.7-2.7c5.4-0.8,5.1-5,5.6-8.9
		c0.2-1.8,0.6-3.6,0.9-5.4c0.7-3.6,5.5-7.3,8.9-7c2,0.2,3,2.8,1.1,4.6c-3,2.9-2.5,6.7-3.3,10.1c-0.5,2.2,0.4,2.6,2.4,2.2
		c1.5-0.3,3-0.5,4.5-0.4c1.5,0.1,3.6-0.8,4.4,1.2c0.7,1.8-0.5,3.2-1.8,4.3c-1.4,1.1-2.7,2.4-4.9,1.3c-5.2-2.6-5.6-2.4-6.1,3.3
		C410.7,48.5,409.8,53.6,410.1,58.8z"/>
	<path fill="#F5F5F5" d="M222.5,37.8c3.8-2.2,7-4.7,10.9-5.8c1.9-0.5,3.9-1.4,5.5,0.6c0.9,1.2,0.6,2.7-0.3,3.7
		c-1.4,1.6-2.8,3.3-5.4,2.7c-4.3-1-11.2,3.7-11.6,8.1c-0.7,6.8-1.1,13.6-1.6,20.3c-0.1,0.8-0.2,1.9,0.3,2.4c1.7,1.7,2.1,3.5,0.5,5.3
		c-1.9,2.2-4.6,3.4-7.5,3.4c-1.6,0-2.3-1-2.1-2.7c1.1-14.4,2.1-28.8,3.3-43.2c0.2-2.9,4.5-5.8,7.3-5.4c2.3,0.4,3.2,1.9,2.1,3.9
		C222.7,33.2,221.7,35,222.5,37.8z"/>
	<path fill="#F5F5F5" d="M568.2,37.7c3.7-1.8,6.7-4.3,10.3-5.5c2.1-0.7,4.3-1.6,6.1,0.2c1.1,1.2,0.8,2.9-0.4,4.1
		c-1.6,1.6-3.2,3.6-5.9,2.1c-0.7-0.4-1.2-0.8-2.2-0.4c-5.4,2-8.8,6.5-9.2,12.5c-0.3,5.1-0.6,10.3-1.1,15.4c-0.2,1.8-0.2,3.2,0.9,5
		c2,3.4-1.1,5-3.6,6.3c-4.8,2.4-6.4,1.5-6.1-3.7c0.9-13.6,2-27.2,3-40.7c0.2-3.1,4.6-6.2,7.5-5.6c2.2,0.5,3.1,2,1.9,4.1
		C568.4,33.2,567.6,35,568.2,37.7z"/>
	<path fill="#038CC3" d="M608,52.5c-4.7-1.4-3.3,1.8-3.1,4.1l0.1-0.1c-1.6-0.5-3.4-0.3-4.7-0.8c-1.7-0.7-5.6-0.1-4.3-4.2l-0.1,0.1
		c3.2,0,6.3,0.7,9.4-1.1C607.5,49.1,608.1,50.5,608,52.5L608,52.5z"/>
	<path fill="#038CC3" d="M607.9,52.5c0.2,0.1,0.3,0.2,0.5,0.2c-0.1,0-0.2,0.1-0.3,0C608.1,52.7,608,52.6,607.9,52.5
		C608,52.5,607.9,52.5,607.9,52.5z"/>
	<path fill="#038CC3" d="M610,56.5c-0.2-0.1-0.5-0.3-0.7-0.4C610,55.6,610.1,56,610,56.5C609.9,56.5,610,56.5,610,56.5z"/>
	<polygon fill="#038CC3" points="249.5,35.3 249.3,35.3 249.4,35.2 249.6,35 	"/>
	<path fill="#1D1D1D" d="M120.1,37.6c-0.3,0.2-0.8,0.8-0.9,0.7c-0.9-0.5-0.2-0.9,0.1-1.3C119.6,37.2,119.8,37.4,120.1,37.6z"/>
	<path fill="#1D1D1D" d="M502.5,34.1c2.3,2.5,2.7,5.7,3.9,8.6c1,2.4,0.3,3.4-2.1,3.6c-0.8,0.1-1.7,0.1-2.5,0.3
		c-3.3,1-3.6-0.4-2.7-3.1C500.2,40.4,500.4,37,502.5,34.1z"/>
	<path fill="#1D1D1D" d="M669.7,47.6c-0.6,10.8-1.2,21.3-1.7,31.8c-0.1,2.3-0.9,2-2.4,1.1c-2.7-1.6-3.9-4-4.5-6.9
		c-0.9-5.2-1.1-10.5-0.1-15.7C662,53.2,664.5,49.5,669.7,47.6z"/>
	<path fill="#1D1D1D" d="M535.1,73.5c0.6-7.6,1.2-15.2,1.7-22.8c0.2-2.6,1.1-2.9,3-1.3c1.4,1.1,2.4,2.5,2.7,4.1
		c1.6,8.2,1.2,16.2-3.5,23.5c-0.8,1.2-1.7,3-3.3,2.5c-1.6-0.5,0-2.3-0.4-3.5c-0.2-0.8,0-1.7,0-2.5C535.3,73.5,535.2,73.5,535.1,73.5
		z"/>
	<path fill="#1D1D1D" d="M640.1,63.9c-0.3,4.9-0.6,9.9-0.9,14.8c0,0.6,0.2,1.4-0.6,1.7c-0.7,0.2-1.3-0.3-1.6-0.9
		c-0.7-0.9-1.5-1.9-1.9-2.9c-2.7-7-2.9-14.2-0.7-21.4c0.4-1.4,1.5-2.6,2.4-3.7c0.7-0.8,1.3-2.2,2.7-1.7c1.1,0.4,0.4,1.8,0.5,2.7
		c0.1,3.8,0,7.6,0,11.4C640,63.9,640.1,63.9,640.1,63.9z"/>
	<path fill="#1D1D1D" d="M596,51.5c-1.4,4.1,2.5,3.5,4.3,4.2c1.3,0.5,3.2,0.3,4.7,0.8c0.5,2.6,1.9,4.5,4.2,5.8
		c0.7,0.4,2,0.9,1.2,1.6c-3.1,3-2.2,7.9-5.4,10.9c-1.1,1-1.9,2.6-3.6,2.2c-2.1-0.4-3-2.7-3-4.2c0-4.9-0.2-8.9-7-8.4
		c-2.1,0.2-3.4-3.9-2.1-6.1c1.4-2.3,4.4-3.5,4.7-6.6C594.2,51.5,595.4,51.5,596,51.5z"/>
	<path fill="#1D1D1D" d="M192.4,55.3c-1.6,0.2-2.8-0.1-2.2-2.4c1-3.7,1.8-7.4,3.4-10.9c0.3-0.7,0.3-1.8,1.4-1.8
		c1.1,0,1.2,1.1,1.4,1.8c0.8,2,1.6,4,2.1,6.1C199.6,53.1,197.7,55.2,192.4,55.3z"/>
	<path fill="#1D1D1D" d="M60.9,64.3c0.2-8,2.6-15,9-20.2c3.5-2.9,6.1-2.4,8.7,1.2c5.3,7.4,3.1,23.3-4,28.9c-5.1,4-11.1,2.1-13-4
		C61,68.3,60.9,66.3,60.9,64.3z"/>
	<path fill="#1D1D1D" d="M334.5,64.2c0.2-8.5,2.9-15.4,9.4-20.4c3.2-2.5,5.5-2,8,1.1c5.6,7,3.5,23.8-3.8,29.4
		c-5.5,4.2-11.9,1.8-13.2-5C334.6,67.4,334.6,65.6,334.5,64.2z"/>
</g>
</svg>
