<?xml version="1.0" encoding="utf-8"?>
<!-- Generator: Adobe Illustrator 17.1.0, SVG Export Plug-In . SVG Version: 6.00 Build 0)  -->
<!DOCTYPE svg PUBLIC "-//W3C//DTD SVG 1.1//EN" "http://www.w3.org/Graphics/SVG/1.1/DTD/svg11.dtd">
<svg version="1.1" xmlns="http://www.w3.org/2000/svg" xmlns:xlink="http://www.w3.org/1999/xlink" x="0px" y="0px"
	 viewBox="0 0 30 30" enable-background="new 0 0 30 30" xml:space="preserve">
<g id="Layer_1" display="none">
	<text transform="matrix(1 0 0 1 2.2124 25.7961)" display="inline" font-family="'FontAwesome'" font-size="27.5427"></text>
</g>
<g id="Layer_1_copy">
	<g>
		<path fill="#FFFFFF" d="M24.6,11c0,0.2,0,0.4,0,0.6c0,6.6-5,14.1-14.1,14.1c-2.8,0-5.4-0.8-7.6-2.2c0.4,0,0.8,0.1,1.2,0.1
			c2.3,0,4.5-0.8,6.2-2.1c-2.2,0-4-1.5-4.6-3.4c0.3,0,0.6,0.1,0.9,0.1c0.4,0,0.9-0.1,1.3-0.2c-2.3-0.5-4-2.5-4-4.9c0,0,0,0,0-0.1
			c0.7,0.4,1.4,0.6,2.2,0.6c-1.3-0.9-2.2-2.4-2.2-4.1c0-0.9,0.2-1.8,0.7-2.5c2.4,3,6.1,5,10.2,5.2c-0.1-0.4-0.1-0.8-0.1-1.1
			c0-2.7,2.2-5,5-5c1.4,0,2.7,0.6,3.6,1.6c1.1-0.2,2.2-0.6,3.1-1.2c-0.4,1.2-1.2,2.1-2.2,2.7c1-0.1,2-0.4,2.9-0.8
			C26.4,9.4,25.6,10.3,24.6,11z"/>
	</g>
</g>
</svg>
